<svg xmlns="http://www.w3.org/2000/svg" xmlns:xlink="http://www.w3.org/1999/xlink" version="1.1" width="256" height="256" viewBox="0 0 256 256" xml:space="preserve">
<desc>Created with Fabric.js 1.7.22</desc>
<defs>
</defs>
<g transform="translate(128 128) scale(0.72 0.72)" style="">
	<g style="stroke: none; stroke-width: 0; stroke-dasharray: none; stroke-linecap: butt; stroke-linejoin: miter; stroke-miterlimit: 10; fill: none; fill-rule: nonzero; opacity: 1;" transform="translate(-175.05 -175.05000000000004) scale(3.89 3.89)" >
	<path d="M 45 63.61 c -10.257 0 -18.603 -8.346 -18.603 -18.603 S 34.743 26.405 45 26.405 c 10.258 0 18.603 8.345 18.603 18.603 S 55.258 63.61 45 63.61 z M 45 30.405 c -8.052 0 -14.603 6.551 -14.603 14.603 c 0 8.052 6.551 14.603 14.603 14.603 s 14.603 -6.551 14.603 -14.603 C 59.603 36.956 53.052 30.405 45 30.405 z" style="stroke: none; stroke-width: 1; stroke-dasharray: none; stroke-linecap: butt; stroke-linejoin: miter; stroke-miterlimit: 10; fill: rgb(0,0,0); fill-rule: nonzero; opacity: 1;" transform=" matrix(1 0 0 1 0 0) " stroke-linecap="round" />
	<path d="M 54.006 43.204 c -0.779 0 -1.521 -0.458 -1.843 -1.221 c -0.744 -1.759 -2.105 -3.18 -3.832 -4.001 c -0.997 -0.474 -1.421 -1.667 -0.947 -2.665 c 0.475 -0.998 1.669 -1.421 2.666 -0.947 c 2.611 1.242 4.67 3.392 5.797 6.055 c 0.431 1.017 -0.045 2.191 -1.063 2.621 C 54.53 43.153 54.266 43.204 54.006 43.204 z" style="stroke: none; stroke-width: 1; stroke-dasharray: none; stroke-linecap: butt; stroke-linejoin: miter; stroke-miterlimit: 10; fill: rgb(0,0,0); fill-rule: nonzero; opacity: 1;" transform=" matrix(1 0 0 1 0 0) " stroke-linecap="round" />
	<path d="M 45 56.78 c -6.492 0 -11.773 -5.281 -11.773 -11.773 c 0 -1.104 0.896 -2 2 -2 s 2 0.896 2 2 c 0 4.286 3.487 7.773 7.773 7.773 c 1.104 0 2 0.896 2 2 S 46.104 56.78 45 56.78 z" style="stroke: none; stroke-width: 1; stroke-dasharray: none; stroke-linecap: butt; stroke-linejoin: miter; stroke-miterlimit: 10; fill: rgb(0,0,0); fill-rule: nonzero; opacity: 1;" transform=" matrix(1 0 0 1 0 0) " stroke-linecap="round" />
	<path d="M 45 63.61 c -16.259 0 -27.662 -7.031 -36.823 -12.681 c -2.517 -1.552 -4.894 -3.018 -7.094 -4.152 C 0.418 46.435 0 45.749 0 45 s 0.418 -1.434 1.083 -1.777 c 2.2 -1.135 4.577 -2.601 7.093 -4.152 C 17.338 33.421 28.741 26.39 45 26.39 c 16.259 0 27.661 7.031 36.823 12.68 c 2.517 1.552 4.894 3.018 7.094 4.153 C 89.582 43.566 90 44.251 90 45 s -0.418 1.435 -1.083 1.777 c -2.2 1.135 -4.577 2.601 -7.095 4.153 C 72.661 56.58 61.259 63.61 45 63.61 z M 6.117 45 c 1.347 0.791 2.731 1.645 4.159 2.525 C 19.008 52.909 29.875 59.61 45 59.61 s 25.991 -6.7 34.723 -12.085 c 1.429 -0.881 2.813 -1.734 4.16 -2.525 c -1.347 -0.791 -2.731 -1.645 -4.159 -2.525 C 70.992 37.091 60.125 30.39 45 30.39 s -25.992 6.701 -34.724 12.085 C 8.848 43.355 7.463 44.209 6.117 45 z" style="stroke: none; stroke-width: 1; stroke-dasharray: none; stroke-linecap: butt; stroke-linejoin: miter; stroke-miterlimit: 10; fill: rgb(0,0,0); fill-rule: nonzero; opacity: 1;" transform=" matrix(1 0 0 1 0 0) " stroke-linecap="round" />
</g>
</g>
</svg>